<svg width="48" height="48" viewBox="0 0 48 48" fill="none" xmlns="http://www.w3.org/2000/svg">
<path d="M24.0184 13.2186C18.0559 13.2186 13.2465 18.0279 13.2465 23.9904C13.2465 29.9529 18.0559 34.7623 24.0184 34.7623C29.9809 34.7623 34.7902 29.9529 34.7902 23.9904C34.7902 18.0279 29.9809 13.2186 24.0184 13.2186ZM24.0184 30.9936C20.1652 30.9936 17.0152 27.8529 17.0152 23.9904C17.0152 20.1279 20.1559 16.9873 24.0184 16.9873C27.8809 16.9873 31.0215 20.1279 31.0215 23.9904C31.0215 27.8529 27.8715 30.9936 24.0184 30.9936ZM37.7434 12.7779C37.7434 14.1748 36.6184 15.2904 35.2309 15.2904C33.834 15.2904 32.7184 14.1654 32.7184 12.7779C32.7184 11.3904 33.8434 10.2654 35.2309 10.2654C36.6184 10.2654 37.7434 11.3904 37.7434 12.7779ZM44.8777 15.3279C44.7184 11.9623 43.9496 8.98105 41.484 6.5248C39.0277 4.06855 36.0465 3.2998 32.6809 3.13105C29.2121 2.93418 18.8152 2.93418 15.3465 3.13105C11.9902 3.29043 9.00898 4.05918 6.54336 6.51543C4.07773 8.97168 3.31836 11.9529 3.14961 15.3186C2.95273 18.7873 2.95273 29.1842 3.14961 32.6529C3.30898 36.0186 4.07773 38.9998 6.54336 41.4561C9.00898 43.9123 11.9809 44.6811 15.3465 44.8498C18.8152 45.0467 29.2121 45.0467 32.6809 44.8498C36.0465 44.6904 39.0277 43.9217 41.484 41.4561C43.9402 38.9998 44.709 36.0186 44.8777 32.6529C45.0746 29.1842 45.0746 18.7967 44.8777 15.3279ZM40.3965 36.3748C39.6652 38.2123 38.2496 39.6279 36.4027 40.3686C33.6371 41.4654 27.0746 41.2123 24.0184 41.2123C20.9621 41.2123 14.3902 41.4561 11.634 40.3686C9.79648 39.6373 8.38086 38.2217 7.64023 36.3748C6.54336 33.6092 6.79648 27.0467 6.79648 23.9904C6.79648 20.9342 6.55273 14.3623 7.64023 11.6061C8.37148 9.76855 9.78711 8.35293 11.634 7.6123C14.3996 6.51543 20.9621 6.76855 24.0184 6.76855C27.0746 6.76855 33.6465 6.5248 36.4027 7.6123C38.2402 8.34355 39.6559 9.75918 40.3965 11.6061C41.4934 14.3717 41.2402 20.9342 41.2402 23.9904C41.2402 27.0467 41.4934 33.6186 40.3965 36.3748Z" fill="white"/>
</svg>
