<svg width="48" height="48" viewBox="0 0 48 48" fill="none" xmlns="http://www.w3.org/2000/svg">
<path d="M42.009 3H5.99966C4.34966 3 3.00903 4.35938 3.00903 6.02813V41.9719C3.00903 43.6406 4.34966 45 5.99966 45H42.009C43.659 45 45.009 43.6406 45.009 41.9719V6.02813C45.009 4.35938 43.659 3 42.009 3ZM15.7028 39H9.47778V18.9562H15.7122V39H15.7028ZM12.5903 16.2188C10.5934 16.2188 8.98091 14.5969 8.98091 12.6094C8.98091 10.6219 10.5934 9 12.5903 9C14.5778 9 16.1997 10.6219 16.1997 12.6094C16.1997 14.6062 14.5872 16.2188 12.5903 16.2188ZM39.0372 39H32.8122V29.25C32.8122 26.925 32.7653 23.9344 29.5778 23.9344C26.334 23.9344 25.8372 26.4656 25.8372 29.0813V39H19.6122V18.9562H25.584V21.6937H25.6684C26.5028 20.1187 28.5372 18.4594 31.5653 18.4594C37.8653 18.4594 39.0372 22.6125 39.0372 28.0125V39Z" fill="white"/>
</svg>
