<svg height="51" viewBox="0 0 189 51" width="189" xmlns="http://www.w3.org/2000/svg"><g fill="#4e4e4e"><path d="m5.62592 17.9276c0 5.1461-.3925 6.8263-1.43919 8.0666-1.14257 1.0559-2.63702 1.6399-4.18673 1.6362l.392506 3.0612c2.402014.0333 4.730514-.8352 6.533054-2.4366 1.8753-1.9529 2.52948-4.6535 2.52948-8.7967v-19.4583h-3.83784v17.954z" transform="translate(50.87 13.23)"/><path d="m17.7413 15.6229c0 2.2168 0 4.1696.1744 5.8498h-3.3581l-.218-3.5187h-.0873c-.7069 1.2298-1.7261 2.2473-2.9526 2.9477-1.2265.7005-2.61593 1.0585-4.02525 1.0372-3.3145 0-7.27445-1.8649-7.27445-9.3948v-12.5441h3.83784v11.9019c0 4.0817 1.22113 6.8262 4.70135 6.8262 1.09173-.0201 2.15331-.3647 3.05161-.9907.8984-.6259 1.5936-1.5053 1.9986-2.5279.2328-.6395.351-1.3157.3489-1.9969v-13.1950066h3.8379v15.6053066z" transform="translate(67.38 13.19)"/><path d="m.174447 7.53632c0-2.74457-.0872234-4.96133-.174447-7.037352h3.44533l.17445 3.677012h.08722c.75374-1.31745 1.85005-2.40219 3.17054-3.13705 1.32048-.734853 2.81494-1.0919011 4.32196-1.0325766 5.0939 0 8.9317 4.3983466 8.9317 10.9078466 0 7.7147-4.6141 11.5237-9.5946 11.5237-1.27848.0541-2.54894-.2281-3.68666-.8187-1.13772-.5907-2.10358-1.4696-2.80276-2.5504h-.08723v11.6556h-3.794225v-23.22327zm3.794233 5.71788c.01001.5349.0684 1.0679.17444 1.5922.31262 1.3003 1.0491 2.4571 2.09137 3.2849 1.04228.8279 2.32997 1.2788 3.65667 1.2805 4.05594 0 6.40224-3.3691 6.40224-8.2864 0-4.30162-2.2242-7.97863-6.2714-7.97863-1.36111.03841-2.67042.53457-3.71981 1.40961-1.0494.87505-1.77865 2.07875-2.07184 3.41977-.15373.51742-.24166 1.05243-.26167 1.5922v3.67705z" transform="translate(92.18 12.67)"/><path d="m4.16057 0 4.61413 12.676c.47973 1.4163 1.00307 3.1053 1.352 4.3984h.0872c.3925-1.2843.8286-2.9293 1.352-4.4775l4.1867-12.58810331h4.0559l-5.7481 15.29740331c-2.7475 7.3541-4.61408 11.1278-7.23079 13.4326-1.32223 1.2403-2.94289 2.1106-4.70135 2.5246l-.95946-3.2811c1.23032-.4134 2.37038-1.0615 3.35811-1.9089 1.39568-1.1762 2.50061-2.664 3.22727-4.3456.15514-.2904.25848-.606.30528-.9324-.03445-.3518-.12272-.696-.26167-1.0205l-7.79779-19.76610331h4.18673z" transform="translate(114.94 13.21)"/><path d="m7.0215 0v6.15768h5.4864v2.97328h-5.4864v11.55884c0 2.639.7414 4.1696 2.87838 4.1696.74972.0118 1.49762-.077 2.22422-.2639l.1744 2.9293c-1.0915.3877-2.2451.5667-3.40169.5278-.76701.0474-1.53504-.0744-2.25059-.357-.71554-.2826-1.36138-.7191-1.89253-1.2792-1.0903-1.1523-1.4828-3.0612-1.4828-5.5858v-11.69964h-3.27089v-2.97328h3.27089v-5.14606z" transform="translate(137.8 7.04)"/><path d="m3.6285 11.9283c.08723 5.278 3.40172 7.4508 7.2308 7.4508 2.0019.0634 3.9934-.3149 5.8353-1.1084l.6542 2.7886c-2.2069.9347-4.585 1.3874-6.9779 1.3283-6.48945 0-10.3709-4.3456-10.3709-10.82 0-6.47432 3.75062-11.5676 9.89116-11.5676 6.88194 0 8.72234 6.15768 8.72234 10.1074-.0065.6091-.0501 1.2172-.1308 1.8209h-14.82803zm11.2431-2.78854c.0436-2.48067-1.003-6.34241-5.31189-6.34241-3.88145 0-5.57359 3.63303-5.87887 6.34241h11.19946z" transform="translate(153.75 12.71)"/><path d="m.174447 7.17854c0-2.52465-.043612-4.69743-.174447-6.694279h3.35811l.13083 4.213609h.17445c.95946-2.88531 3.27089-4.69742717 5.83526-4.69742717.36765-.00542143.73435.03895837 1.09025.13195017v3.677017c-.4296-.09447-.86861-.13874-1.30831-.13195-2.70393 0-4.61413 2.08481-5.13747 5.00531-.10796.60107-.16631 1.21012-.17445 1.82093v11.4357h-3.794223z" transform="translate(177.77 12.72)"/></g><path d="m5.89353 2.844c.02536.58765-.12268 1.16967-.42538 1.67245-.3027.50277-.74647.9037-1.27516 1.15206-.52869.24837-1.11855.333-1.69494.2432-.57639-.08981-1.11342-.35001-1.543152-.7477-.429728-.39768-.732842-.91498-.8709943-1.48644-.138152-.57146-.1051337-1.1714.0948773-1.72393.200012-.55254.558028-1.032823 1.028759-1.380102.47072-.347279 1.03301-.5459461 1.61572-.57086571.78063-.03338379 1.54247.24711671 2.11816.77987871.57569.532759.91814 1.274209.95211 2.061449z" fill="#767677" transform="translate(31.3 .31)"/><path d="m18.2646 7.13411c-7.8501 0-14.70588-2.87651-18.2646-7.13411 1.32539 3.8204 3.79556 7.13081 7.0686 9.47303 3.2731 2.34217 7.1871 3.60037 11.2004 3.60037s7.9273-1.2582 11.2004-3.60037c3.273-2.34222 5.7432-5.65263 7.0686-9.47303-3.5675 4.2576-10.4232 7.13411-18.2734 7.13411z" fill="#f37726" transform="translate(1.74 30.98)"/><path d="m18.2733 5.93931c7.8502 0 14.706 2.87652 18.2647 7.13409-1.3254-3.82037-3.7956-7.13078-7.0686-9.473-3.2731-2.34222-7.1871-3.6004-11.2004-3.6004s-7.9273 1.25818-11.2004 3.6004c-3.27304 2.34222-5.74321 5.65263-7.0686 9.473 3.56745-4.24877 10.4232-7.13409 18.2733-7.13409z" fill="#f37726" transform="translate(1.73 4.48)"/><path d="m7.42789 3.58338c.03219.74092-.15434 1.47481-.53596 2.10875s-.94118 1.13943-1.60782 1.45247c-.66664.31303-1.4104.41954-2.13709.30603-.7267-.11351-1.40366-.44193-1.94518-.94368-.541512-.50175-.92323-1.15427-1.096823-1.87493-.1735927-.72067-.1312531-1.47708.121658-2.17346.252912-.69639.705022-1.30143 1.299085-1.738527.59407-.437098 1.30338-.6865935 2.03813-.71689956.98278-.04053674 1.9414.31357256 2.66572.98470156.72432.671125 1.15523 1.604515 1.19828 2.595545z" fill="#989798" transform="translate(1.8 42.81)"/><path d="m2.27471 4.39629c-.43108.01879-.858-.09184-1.22672-.31786-.368722-.22603-.662662-.55729-.844619-.95187-.1819574-.39458-.2437508-.83473-.1775594-1.26475.0661915-.43001.2573924-.83055.5494014-1.150927.292009-.320373.671697-.546175 1.091007-.6488238.41931-.1026489.85939-.0775306 1.26454.0721758.40515.149706.75716.41727 1.01146.768825.2543.35156.39947.7713.41713 1.2061.02364.58191-.18257 1.14953-.57338 1.5783-.39081.42878-.93431.6837-1.51126.70883z" fill="#6f7070" transform="translate(.36 5.06)"/></svg>