<svg viewBox="0 0 300.529 57.932" xmlns="http://www.w3.org/2000/svg" xmlns:xlink="http://www.w3.org/1999/xlink"><clipPath id="a" transform="translate(1.529 -20.139)"><path d="m50.197 34.412-23.523-14.06v57.646l9.397-5.712v-16.221l7.098 4.3-.037-11.089-7.061-4.222v-6.443l14.158 8.559z"/></clipPath><linearGradient id="b" gradientTransform="matrix(1 0 0 -1 1.529 82.111)" gradientUnits="userSpaceOnUse" x1="-1.14" x2="56.633" y1="53.145" y2="53.145"><stop offset="0" stop-color="#ff6f00"/><stop offset="1" stop-color="#ffa800"/></linearGradient><clipPath id="c" transform="translate(1.529 -20.139)"><path d="m1.032 34.412 23.529-14.06v57.646l-9.398-5.712v-33.675l-14.163 8.559z"/></clipPath><linearGradient id="d" x1="-1.529" x2="56.243" xlink:href="#b" y1="53.145" y2="53.145"/><g clip-path="url(#a)"><path d="m.39 0h57.773v57.932h-57.773z" fill="url(#b)"/></g><g clip-path="url(#c)"><path d="m0 0h57.773v57.932h-57.773z" fill="url(#d)"/></g><g fill="#425066" transform="translate(1.529 -20.139)"><path d="m92.873 38.214h-10.524v30.37h-5.822v-30.37h-10.433v-4.947h26.779z"/><path d="m99.858 69.07a11.423 11.423 0 0 1 -8.682-3.529 13.058 13.058 0 0 1 -3.335-9.4v-.732a16.376 16.376 0 0 1 1.451-7.024 11.406 11.406 0 0 1 4.067-4.813 10.4 10.4 0 0 1 5.87-1.72 9.653 9.653 0 0 1 7.919 3.417q2.8 3.417 2.8 9.682v2.373h-16.419a8.033 8.033 0 0 0 2.076 5.143 6.08 6.08 0 0 0 4.579 1.893 7.519 7.519 0 0 0 6.334-3.272l3.037 3.032a10.345 10.345 0 0 1 -4.024 3.652 12.124 12.124 0 0 1 -5.673 1.298zm-.672-22.486a4.645 4.645 0 0 0 -3.736 1.675 9.029 9.029 0 0 0 -1.819 4.73h10.753v-.4a7.291 7.291 0 0 0 -1.51-4.467 4.592 4.592 0 0 0 -3.688-1.541z"/><path d="m119.518 42.335.165 3.037a8.851 8.851 0 0 1 7.3-3.517q7.833 0 7.978 9.386v17.343h-5.636v-17a5.575 5.575 0 0 0 -1.029-3.7 4.222 4.222 0 0 0 -3.373-1.2 5.415 5.415 0 0 0 -5.08 3.228v18.672h-5.636v-26.244z"/><path d="m153.239 61.454a2.7 2.7 0 0 0 -1.238-2.4 12.815 12.815 0 0 0 -4.114-1.458 20.411 20.411 0 0 1 -4.8-1.6q-4.216-2.127-4.216-6.181a7.1 7.1 0 0 1 2.732-5.679 10.48 10.48 0 0 1 6.938-2.278 10.916 10.916 0 0 1 7.268 2.328 7.516 7.516 0 0 1 2.77 6.036h-5.63a3.712 3.712 0 0 0 -1.206-2.825 4.5 4.5 0 0 0 -3.2-1.117 4.834 4.834 0 0 0 -3.026.9 2.879 2.879 0 0 0 -1.174 2.4 2.416 2.416 0 0 0 1.067 2.111 14.624 14.624 0 0 0 4.4 1.519 20.131 20.131 0 0 1 5.2 1.82 7.457 7.457 0 0 1 2.807 2.535 6.663 6.663 0 0 1 .918 3.59 6.938 6.938 0 0 1 -2.807 5.735 11.589 11.589 0 0 1 -7.349 2.194 12.485 12.485 0 0 1 -5.5-1.161 9.141 9.141 0 0 1 -3.736-3.2 7.815 7.815 0 0 1 -1.343-4.397h5.475a4.194 4.194 0 0 0 1.5 3.21 5.677 5.677 0 0 0 3.687 1.117 5.489 5.489 0 0 0 3.384-.888 2.776 2.776 0 0 0 1.193-2.311z"/><path d="m161.682 55.217a16.02 16.02 0 0 1 1.462-6.947 11 11 0 0 1 4.1-4.757 11.17 11.17 0 0 1 6.072-1.675 10.727 10.727 0 0 1 8.245 3.417 13.732 13.732 0 0 1 3.416 9.074l.026 1.385a16.246 16.246 0 0 1 -1.424 6.929 10.862 10.862 0 0 1 -4.083 4.73 11.259 11.259 0 0 1 -6.132 1.675 10.62 10.62 0 0 1 -8.5-3.7q-3.163-3.7-3.2-9.861zm5.635.513a10.967 10.967 0 0 0 1.6 6.344 5.42 5.42 0 0 0 7.826 1.084 5.678 5.678 0 0 0 1.064-1.124q1.6-2.328 1.6-6.817a10.8 10.8 0 0 0 -1.633-6.3 5.354 5.354 0 0 0 -7.712-1.19 5.68 5.68 0 0 0 -1.109 1.15q-1.642 2.291-1.636 6.853z"/><path d="m201.956 47.723a13.375 13.375 0 0 0 -2.295-.2q-3.875 0-5.219 3.1v17.961h-5.635v-26.244h5.379l.144 2.938a6.291 6.291 0 0 1 5.657-3.418 5.131 5.131 0 0 1 1.99.335z"/><path d="m225.522 53.62h-13.6v14.964h-5.871v-35.317h21.449v4.947h-15.581v10.5h13.6z"/><path d="m236.643 68.584h-5.635v-35.4h5.635z"/><path d="m240.768 55.217a16.049 16.049 0 0 1 1.462-6.947 11.009 11.009 0 0 1 4.1-4.757 11.184 11.184 0 0 1 6.073-1.675 10.719 10.719 0 0 1 8.245 3.417 13.791 13.791 0 0 1 3.421 9.074v1.385a16.241 16.241 0 0 1 -1.4 6.929 10.83 10.83 0 0 1 -4.082 4.73 11.259 11.259 0 0 1 -6.132 1.675 10.66 10.66 0 0 1 -8.5-3.7q-3.192-3.7-3.2-9.861zm5.636.513a10.96 10.96 0 0 0 1.6 6.344 5.433 5.433 0 0 0 8.89-.04q1.6-2.328 1.6-6.817a10.773 10.773 0 0 0 -1.638-6.3 5.355 5.355 0 0 0 -7.713-1.19 5.628 5.628 0 0 0 -1.108 1.151q-1.635 2.29-1.635 6.852z"/><path d="m289.517 60.46 3.992-18.125h5.491l-6.836 26.244h-4.637l-5.38-18.025-5.288 18.025h-4.637l-6.863-26.244h5.523l4.056 17.929 5.15-17.929h4.242z"/></g></svg>