<svg enable-background="new 0 0 300 100" viewBox="0 0 300 100" xmlns="http://www.w3.org/2000/svg"><path d="m36.7 81.2c-1.8.5-4.2.9-7.2 1.4s-6.4.8-10.3.8c-3.4 0-6.3-.5-8.6-1.5s-4.2-2.4-5.6-4.2-2.4-3.9-3.1-6.4c-.6-2.5-.9-5.2-.9-8.2v-24.8h7.9v23.1c0 5.4.8 9.2 2.5 11.6 1.7 2.3 4.6 3.5 8.6 3.5.8 0 1.7 0 2.6-.1s1.8-.1 2.5-.2c.8-.1 1.5-.2 2.2-.3.6-.1 1.1-.2 1.4-.3v-37.3h7.9z"/><path d="m55.9 40.2c1-.6 2.4-1.3 4.4-2s4.2-1 6.8-1c3.2 0 6 .6 8.5 1.7s4.5 2.7 6.2 4.8c1.7 2 3 4.5 3.9 7.3s1.3 5.9 1.3 9.3c0 3.6-.5 6.8-1.6 9.6-1 2.9-2.5 5.3-4.5 7.3-1.9 2-4.2 3.5-7 4.6-2.7 1.1-5.8 1.6-9.2 1.6-3.7 0-6.9-.3-9.8-.8-2.8-.5-5.2-1-7-1.5v-63.2l7.9-1.4zm0 35.4c.8.2 1.9.4 3.4.6 1.4.2 3.2.3 5.4.3 4.2 0 7.6-1.4 10.2-4.2 2.5-2.8 3.8-6.8 3.8-11.9 0-2.3-.2-4.4-.7-6.4s-1.2-3.7-2.2-5.1-2.3-2.6-3.9-3.4-3.6-1.2-5.8-1.2-4.1.4-5.9 1.1-3.2 1.5-4.2 2.3v27.9z"/><path d="m131 81.2c-1.8.5-4.2.9-7.2 1.4s-6.4.8-10.3.8c-3.4 0-6.3-.5-8.6-1.5s-4.2-2.4-5.6-4.2-2.4-3.9-3.1-6.4c-.6-2.5-.9-5.2-.9-8.2v-24.8h7.9v23.1c0 5.4.8 9.2 2.5 11.6 1.7 2.3 4.6 3.5 8.6 3.5.8 0 1.7 0 2.6-.1s1.8-.1 2.5-.2c.8-.1 1.5-.2 2.2-.3s1.1-.2 1.4-.3v-37.3h7.9z"/><path d="m142.4 39.6c1.8-.5 4.2-.9 7.2-1.4s6.5-.8 10.4-.8c3.5 0 6.4.5 8.7 1.5s4.2 2.4 5.6 4.2 2.4 3.9 2.9 6.4c.6 2.5.8 5.2.8 8.2v24.8h-7.9v-23.2c0-2.7-.2-5-.6-7-.4-1.9-1-3.5-1.8-4.7s-2-2.1-3.4-2.6-3.2-.8-5.3-.8c-.8 0-1.7 0-2.6.1s-1.8.1-2.6.2-1.6.2-2.2.3c-.7.1-1.1.2-1.4.3v37.3h-7.9z"/><path d="m196.3 38.3h16.7v6.6h-16.7v20.4c0 2.2.2 4 .5 5.5.3 1.4.8 2.6 1.5 3.4s1.5 1.4 2.5 1.7 2.2.5 3.6.5c2.4 0 4.4-.3 5.8-.8s2.4-.9 2.9-1.1l1.7 6.5c-.8.4-2.2.9-4.2 1.5s-4.3.9-6.8.9c-3 0-5.5-.4-7.4-1.1-2-.8-3.5-1.9-4.7-3.4s-2-3.4-2.5-5.6-.7-4.8-.7-7.8v-39.5l7.9-1.4z"/><path d="m256 81.2c-1.8.5-4.2.9-7.2 1.4s-6.4.8-10.3.8c-3.4 0-6.3-.5-8.6-1.5s-4.2-2.4-5.6-4.2-2.4-3.9-3.1-6.4c-.6-2.5-.9-5.2-.9-8.2v-24.8h7.9v23.1c0 5.4.8 9.2 2.5 11.6 1.7 2.3 4.6 3.5 8.6 3.5.8 0 1.7 0 2.6-.1s1.8-.1 2.5-.2c.8-.1 1.5-.2 2.2-.3s1.1-.2 1.4-.3v-37.3h7.9v42.9z"/><circle cx="281.2" cy="34.4" fill="#e95420" r="17.8"/><path d="m271.9 34.4c0 1.3-1 2.3-2.3 2.3s-2.3-1-2.3-2.3 1-2.3 2.3-2.3 2.3 1 2.3 2.3zm13.1 11.1c.6 1.1 2 1.5 3.1.8 1.1-.6 1.5-2 .8-3.1-.6-1.1-2-1.5-3.1-.8s-1.5 2-.8 3.1zm3.9-20c.6-1.1.3-2.5-.8-3.1s-2.5-.3-3.1.8-.3 2.5.8 3.1c1.1.7 2.5.3 3.1-.8zm-7.7 2.3c3.4 0 6.2 2.6 6.5 6l3.3-.1c-.2-2.5-1.2-4.7-2.9-6.4-.9.3-1.9.3-2.8-.2s-1.4-1.4-1.6-2.3c-.8-.2-1.7-.3-2.6-.3-1.6 0-3.1.4-4.4 1l1.6 2.9c.9-.3 1.9-.6 2.9-.6zm-6.6 6.6c0-2.2 1.1-4.2 2.8-5.4l-1.7-2.8c-2 1.3-3.4 3.3-4.1 5.7.7.6 1.2 1.5 1.2 2.5s-.5 1.9-1.2 2.5c.6 2.4 2.1 4.4 4.1 5.7l1.7-2.8c-1.7-1.3-2.8-3.2-2.8-5.4zm6.6 6.5c-1 0-1.9-.2-2.8-.6l-1.6 2.9c1.3.7 2.8 1 4.4 1 .9 0 1.8-.1 2.6-.3.1-.9.7-1.8 1.6-2.3s1.9-.6 2.8-.2c1.7-1.6 2.7-3.9 2.9-6.4l-3.3-.1c-.4 3.4-3.2 6-6.6 6z" fill="#fff"/></svg>